<svg xmlns="http://www.w3.org/2000/svg" width="24" height="24" viewBox="0 0 24 24">
  <defs>
    <linearGradient id="textGradient" x1="0%" y1="0%" x2="100%" y2="100%">
      <stop offset="0%" stop-color="#3F51B5" stop-opacity="1"/>
      <stop offset="100%" stop-color="#303F9F" stop-opacity="1"/>
    </linearGradient>
  </defs>
  <path d="M4 6h16c1.1 0 2 .9 2 2v12c0 1.1-.9 2-2 2H4c-1.1 0-2-.9-2-2V8c0-1.1.9-2 2-2z" fill="url(#textGradient)"></path>
  <path d="M7 8h10M7 12h12M7 16h8" stroke="white" stroke-width="1.5" stroke-linecap="round" stroke-linejoin="round"></path>
  <path d="M4 6h16c1.1 0 2 .9 2 2v12c0 1.1-.9 2-2 2H4c-1.1 0-2-.9-2-2V8c0-1.1.9-2 2-2z" fill="none" stroke="white" stroke-width="1" stroke-opacity="0.3"></path>
</svg>
